<svg version="1.1" id="Layer_1" xmlns="http://www.w3.org/2000/svg" xmlns:xlink="http://www.w3.org/1999/xlink" x="0px" y="0px"
	 width="100%" viewBox="0 0 400 400" enable-background="new 0 0 400 400" xml:space="preserve">
<path fill="#181818" opacity="1.000000" stroke="none" 
	d="
M219.000000,401.000000 
	C146.022659,401.000000 73.545303,401.000000 1.033979,401.000000 
	C1.033979,267.730988 1.033979,134.461960 1.033979,1.096468 
	C134.227310,1.096468 267.454712,1.096468 400.841064,1.096468 
	C400.841064,134.333176 400.841064,267.666565 400.841064,401.000000 
	C340.462036,401.000000 279.981018,401.000000 219.000000,401.000000 
M374.998749,178.709412 
	C368.137115,109.903877 333.976532,59.148857 270.696014,31.720734 
	C205.502655,3.463516 143.231171,13.197251 88.352165,58.655842 
	C47.390003,92.586533 28.096075,137.684082 26.891455,190.766663 
	C143.479324,190.766663 259.203766,190.766663 375.043213,190.766663 
	C375.043213,186.901718 375.043213,183.281754 374.998749,178.709412 
M259.252563,354.832611 
	C221.697571,369.553345 183.713684,370.809082 146.233978,355.770599 
	C90.582405,333.440735 57.987789,291.879822 47.896267,232.799667 
	C46.678570,225.670715 46.532478,218.358719 45.889214,211.125854 
	C39.447464,211.125854 33.381680,211.125854 26.580118,211.125854 
	C29.674324,279.010071 58.719189,331.777924 118.571579,363.680328 
	C183.251373,398.155853 247.494690,392.806793 306.493774,349.140442 
	C352.263977,315.264984 374.060425,267.997467 375.567169,211.165451 
	C368.609344,211.165451 362.522736,211.165451 356.704041,211.165451 
	C352.773712,278.396942 321.468170,326.655182 259.252563,354.832611 
M74.883102,210.843307 
	C71.780396,210.403885 70.183510,211.350235 70.682495,214.864014 
	C71.920204,223.579666 72.245667,232.498093 74.275116,241.016418 
	C89.481148,304.841614 148.990707,347.146606 214.314255,340.911987 
	C270.361084,335.562744 317.581177,293.082153 329.014343,237.385056 
	C330.765015,228.856430 331.275177,220.073151 332.388885,211.169159 
	C325.088470,211.169159 319.035950,211.169159 312.998566,211.169159 
	C311.479523,276.594818 259.238983,321.613556 203.970551,322.407227 
	C178.619431,322.771271 155.510361,315.976410 135.260010,300.754028 
	C105.541267,278.414154 90.928177,248.053665 89.629333,210.842957 
	C84.757011,210.842957 80.278831,210.842957 74.883102,210.843307 
z"/>
<path fill="#FEFEFE" opacity="1.000000" stroke="none" 
	d="
M375.020996,179.185608 
	C375.043213,183.281754 375.043213,186.901718 375.043213,190.766663 
	C259.203766,190.766663 143.479324,190.766663 26.891455,190.766663 
	C28.096075,137.684082 47.390003,92.586533 88.352165,58.655842 
	C143.231171,13.197251 205.502655,3.463516 270.696014,31.720734 
	C333.976532,59.148857 368.137115,109.903877 375.020996,179.185608 
z"/>
<path fill="#FAFAFA" opacity="1.000000" stroke="none" 
	d="
M259.608887,354.689453 
	C321.468170,326.655182 352.773712,278.396942 356.704041,211.165451 
	C362.522736,211.165451 368.609344,211.165451 375.567169,211.165451 
	C374.060425,267.997467 352.263977,315.264984 306.493774,349.140442 
	C247.494690,392.806793 183.251373,398.155853 118.571579,363.680328 
	C58.719189,331.777924 29.674324,279.010071 26.580118,211.125854 
	C33.381680,211.125854 39.447464,211.125854 45.889214,211.125854 
	C46.532478,218.358719 46.678570,225.670715 47.896267,232.799667 
	C57.987789,291.879822 90.582405,333.440735 146.233978,355.770599 
	C183.713684,370.809082 221.697571,369.553345 259.608887,354.689453 
z"/>
<path fill="#FAFAFA" opacity="1.000000" stroke="none" 
	d="
M75.341873,210.843140 
	C80.278831,210.842957 84.757011,210.842957 89.629333,210.842957 
	C90.928177,248.053665 105.541267,278.414154 135.260010,300.754028 
	C155.510361,315.976410 178.619431,322.771271 203.970551,322.407227 
	C259.238983,321.613556 311.479523,276.594818 312.998566,211.169159 
	C319.035950,211.169159 325.088470,211.169159 332.388885,211.169159 
	C331.275177,220.073151 330.765015,228.856430 329.014343,237.385056 
	C317.581177,293.082153 270.361084,335.562744 214.314255,340.911987 
	C148.990707,347.146606 89.481148,304.841614 74.275116,241.016418 
	C72.245667,232.498093 71.920204,223.579666 70.682495,214.864014 
	C70.183510,211.350235 71.780396,210.403885 75.341873,210.843140 
z"/>
</svg>