<svg xmlns="http://www.w3.org/2000/svg" xmlns:xlink="http://www.w3.org/1999/xlink" width="1500" zoomAndPan="magnify" viewBox="0 0 1125 374.999991" height="500" preserveAspectRatio="xMidYMid meet" version="1.0"><defs><g/><clipPath id="33ac425ca7"><path d="M 59.191406 76.976562 L 263.835938 76.976562 L 263.835938 187.5 L 59.191406 187.5 Z M 59.191406 76.976562 " clip-rule="nonzero"/></clipPath><clipPath id="2911fe6386"><path d="M 127.300781 83.1875 C 137.738281 79.4375 149.675781 76.976562 161.359375 76.976562 C 173.039062 76.976562 184.28125 79.085938 194.640625 82.835938 C 194.863281 82.953125 195.082031 82.953125 195.304688 83.070312 C 234.207031 98.070312 262.863281 137.679688 263.414062 180.542969 L 263.414062 187.5 L 59.191406 187.5 L 59.191406 180.550781 C 59.742188 137.445312 87.957031 97.835938 127.300781 83.1875 Z M 127.300781 83.1875 " clip-rule="nonzero"/></clipPath><clipPath id="7cc2f67044"><path d="M 59.414062 184.652344 L 263.40625 184.652344 L 263.40625 290.402344 L 59.414062 290.402344 Z M 59.414062 184.652344 " clip-rule="nonzero"/></clipPath><clipPath id="c2cb2be617"><path d="M 195.300781 284.320312 C 184.863281 287.992188 172.929688 290.402344 161.246094 290.402344 C 149.566406 290.402344 138.324219 288.335938 127.964844 284.664062 C 127.746094 284.546875 127.523438 284.546875 127.304688 284.433594 C 88.402344 269.742188 59.75 230.945312 59.199219 189.015625 L 59.199219 184.5 L 263.40625 184.5 L 263.40625 189.011719 C 262.855469 231.175781 234.644531 269.972656 195.300781 284.320312 Z M 195.300781 284.320312 " clip-rule="nonzero"/></clipPath><clipPath id="832f1639dc"><path d="M 80.800781 184.394531 L 242.050781 184.394531 L 242.050781 266.144531 L 80.800781 266.144531 Z M 80.800781 184.394531 " clip-rule="nonzero"/></clipPath><clipPath id="c28c5aa700"><path d="M 188.1875 261.332031 C 179.933594 264.238281 170.492188 266.144531 161.253906 266.144531 C 152.015625 266.144531 143.125 264.511719 134.933594 261.605469 C 134.757812 261.515625 134.585938 261.515625 134.410156 261.425781 C 103.644531 249.804688 80.984375 219.121094 80.546875 186.007812 L 80.546875 184.5 L 242.050781 184.5 L 242.050781 186.003906 C 241.613281 219.304688 219.300781 249.984375 188.1875 261.332031 Z M 188.1875 261.332031 " clip-rule="nonzero"/></clipPath><clipPath id="a5e62abfb2"><path d="M 54.492188 189 L 270.984375 189 L 270.984375 199.175781 L 54.492188 199.175781 Z M 54.492188 189 " clip-rule="nonzero"/></clipPath></defs><rect x="-112.5" width="1350" fill="#ffffff" y="-37.499999" height="449.999989" fill-opacity="1"/><rect x="-112.5" width="1350" fill="#ffffff" y="-37.499999" height="449.999989" fill-opacity="1"/><g fill="#000000" fill-opacity="1"><g transform="translate(306.505863, 235.874985)"><g><path d="M 68.375 -21.671875 L 25.875 -21.671875 L 18.03125 0 L 4.609375 0 L 39.84375 -96.90625 L 54.53125 -96.90625 L 89.625 0 L 76.203125 0 Z M 64.734375 -32.015625 L 47.125 -81.234375 L 29.5 -32.015625 Z M 64.734375 -32.015625 "/></g></g></g><g fill="#000000" fill-opacity="1"><g transform="translate(395.149217, 235.874985)"><g><path d="M 26.28125 -66.140625 L 26.28125 -20.96875 C 26.28125 -17.238281 27.070312 -14.601562 28.65625 -13.0625 C 30.25 -11.53125 33.003906 -10.765625 36.921875 -10.765625 L 46.28125 -10.765625 L 46.28125 0 L 34.8125 0 C 27.726562 0 22.414062 -1.628906 18.875 -4.890625 C 15.332031 -8.148438 13.5625 -13.507812 13.5625 -20.96875 L 13.5625 -66.140625 L 3.640625 -66.140625 L 3.640625 -76.625 L 13.5625 -76.625 L 13.5625 -95.921875 L 26.28125 -95.921875 L 26.28125 -76.625 L 46.28125 -76.625 L 46.28125 -66.140625 Z M 26.28125 -66.140625 "/></g></g></g><g fill="#000000" fill-opacity="1"><g transform="translate(440.449484, 235.874985)"><g><path d="M 26.28125 -66.140625 L 26.28125 -20.96875 C 26.28125 -17.238281 27.070312 -14.601562 28.65625 -13.0625 C 30.25 -11.53125 33.003906 -10.765625 36.921875 -10.765625 L 46.28125 -10.765625 L 46.28125 0 L 34.8125 0 C 27.726562 0 22.414062 -1.628906 18.875 -4.890625 C 15.332031 -8.148438 13.5625 -13.507812 13.5625 -20.96875 L 13.5625 -66.140625 L 3.640625 -66.140625 L 3.640625 -76.625 L 13.5625 -76.625 L 13.5625 -95.921875 L 26.28125 -95.921875 L 26.28125 -76.625 L 46.28125 -76.625 L 46.28125 -66.140625 Z M 26.28125 -66.140625 "/></g></g></g><g fill="#000000" fill-opacity="1"><g transform="translate(485.749751, 235.874985)"><g><path d="M 80.6875 -41.25 C 80.6875 -38.820312 80.546875 -36.257812 80.265625 -33.5625 L 19.015625 -33.5625 C 19.484375 -26.007812 22.070312 -20.113281 26.78125 -15.875 C 31.488281 -11.632812 37.195312 -9.515625 43.90625 -9.515625 C 49.40625 -9.515625 53.992188 -10.796875 57.671875 -13.359375 C 61.359375 -15.921875 63.945312 -19.34375 65.4375 -23.625 L 79.140625 -23.625 C 77.085938 -16.257812 72.984375 -10.269531 66.828125 -5.65625 C 60.679688 -1.039062 53.039062 1.265625 43.90625 1.265625 C 36.632812 1.265625 30.128906 -0.363281 24.390625 -3.625 C 18.660156 -6.894531 14.164062 -11.535156 10.90625 -17.546875 C 7.644531 -23.554688 6.015625 -30.523438 6.015625 -38.453125 C 6.015625 -46.378906 7.597656 -53.320312 10.765625 -59.28125 C 13.929688 -65.25 18.378906 -69.84375 24.109375 -73.0625 C 29.847656 -76.28125 36.445312 -77.890625 43.90625 -77.890625 C 51.175781 -77.890625 57.609375 -76.300781 63.203125 -73.125 C 68.796875 -69.957031 73.109375 -65.597656 76.140625 -60.046875 C 79.171875 -54.503906 80.6875 -48.238281 80.6875 -41.25 Z M 67.53125 -43.90625 C 67.53125 -48.75 66.457031 -52.921875 64.3125 -56.421875 C 62.175781 -59.921875 59.265625 -62.578125 55.578125 -64.390625 C 51.898438 -66.210938 47.820312 -67.125 43.34375 -67.125 C 36.914062 -67.125 31.441406 -65.070312 26.921875 -60.96875 C 22.398438 -56.863281 19.8125 -51.175781 19.15625 -43.90625 Z M 67.53125 -43.90625 "/></g></g></g><g fill="#000000" fill-opacity="1"><g transform="translate(566.843004, 235.874985)"><g><path d="M 48.09375 -78.03125 C 57.414062 -78.03125 64.96875 -75.207031 70.75 -69.5625 C 76.53125 -63.925781 79.421875 -55.796875 79.421875 -45.171875 L 79.421875 0 L 66.84375 0 L 66.84375 -43.34375 C 66.84375 -50.988281 64.929688 -56.835938 61.109375 -60.890625 C 57.285156 -64.953125 52.0625 -66.984375 45.4375 -66.984375 C 38.726562 -66.984375 33.390625 -64.882812 29.421875 -60.6875 C 25.460938 -56.488281 23.484375 -50.382812 23.484375 -42.375 L 23.484375 0 L 10.765625 0 L 10.765625 -76.625 L 23.484375 -76.625 L 23.484375 -65.71875 C 26.003906 -69.632812 29.429688 -72.664062 33.765625 -74.8125 C 38.097656 -76.957031 42.875 -78.03125 48.09375 -78.03125 Z M 48.09375 -78.03125 "/></g></g></g><g fill="#000000" fill-opacity="1"><g transform="translate(650.732586, 235.874985)"><g><path d="M 44.1875 1.265625 C 37.007812 1.265625 30.503906 -0.363281 24.671875 -3.625 C 18.847656 -6.894531 14.28125 -11.535156 10.96875 -17.546875 C 7.664062 -23.554688 6.015625 -30.523438 6.015625 -38.453125 C 6.015625 -46.285156 7.710938 -53.207031 11.109375 -59.21875 C 14.515625 -65.226562 19.15625 -69.84375 25.03125 -73.0625 C 30.90625 -76.28125 37.476562 -77.890625 44.75 -77.890625 C 52.019531 -77.890625 58.585938 -76.28125 64.453125 -73.0625 C 70.328125 -69.84375 74.96875 -65.25 78.375 -59.28125 C 81.78125 -53.320312 83.484375 -46.378906 83.484375 -38.453125 C 83.484375 -30.523438 81.734375 -23.554688 78.234375 -17.546875 C 74.734375 -11.535156 70 -6.894531 64.03125 -3.625 C 58.070312 -0.363281 51.457031 1.265625 44.1875 1.265625 Z M 44.1875 -9.921875 C 48.75 -9.921875 53.035156 -10.992188 57.046875 -13.140625 C 61.054688 -15.285156 64.296875 -18.5 66.765625 -22.78125 C 69.234375 -27.070312 70.46875 -32.296875 70.46875 -38.453125 C 70.46875 -44.609375 69.253906 -49.828125 66.828125 -54.109375 C 64.410156 -58.398438 61.242188 -61.59375 57.328125 -63.6875 C 53.410156 -65.789062 49.171875 -66.84375 44.609375 -66.84375 C 39.941406 -66.84375 35.675781 -65.789062 31.8125 -63.6875 C 27.945312 -61.59375 24.847656 -58.398438 22.515625 -54.109375 C 20.179688 -49.828125 19.015625 -44.609375 19.015625 -38.453125 C 19.015625 -32.203125 20.15625 -26.929688 22.4375 -22.640625 C 24.726562 -18.359375 27.78125 -15.164062 31.59375 -13.0625 C 35.414062 -10.96875 39.613281 -9.921875 44.1875 -9.921875 Z M 44.1875 -9.921875 "/></g></g></g><g fill="#000000" fill-opacity="1"><g transform="translate(734.622168, 235.874985)"><g><path d="M 102.90625 -78.03125 C 108.875 -78.03125 114.1875 -76.789062 118.84375 -74.3125 C 123.507812 -71.84375 127.191406 -68.140625 129.890625 -63.203125 C 132.597656 -58.265625 133.953125 -52.253906 133.953125 -45.171875 L 133.953125 0 L 121.375 0 L 121.375 -43.34375 C 121.375 -50.988281 119.484375 -56.835938 115.703125 -60.890625 C 111.929688 -64.953125 106.828125 -66.984375 100.390625 -66.984375 C 93.773438 -66.984375 88.507812 -64.859375 84.59375 -60.609375 C 80.675781 -56.367188 78.71875 -50.242188 78.71875 -42.234375 L 78.71875 0 L 66.140625 0 L 66.140625 -43.34375 C 66.140625 -50.988281 64.25 -56.835938 60.46875 -60.890625 C 56.695312 -64.953125 51.597656 -66.984375 45.171875 -66.984375 C 38.546875 -66.984375 33.273438 -64.859375 29.359375 -60.609375 C 25.441406 -56.367188 23.484375 -50.242188 23.484375 -42.234375 L 23.484375 0 L 10.765625 0 L 10.765625 -76.625 L 23.484375 -76.625 L 23.484375 -65.578125 C 26.003906 -69.585938 29.382812 -72.664062 33.625 -74.8125 C 37.863281 -76.957031 42.550781 -78.03125 47.6875 -78.03125 C 54.113281 -78.03125 59.796875 -76.582031 64.734375 -73.6875 C 69.679688 -70.800781 73.363281 -66.5625 75.78125 -60.96875 C 77.925781 -66.375 81.46875 -70.566406 86.40625 -73.546875 C 91.351562 -76.535156 96.851562 -78.03125 102.90625 -78.03125 Z M 102.90625 -78.03125 "/></g></g></g><g fill="#000000" fill-opacity="1"><g transform="translate(873.040141, 235.874985)"><g><path d="M 17.34375 -89.078125 C 14.914062 -89.078125 12.863281 -89.914062 11.1875 -91.59375 C 9.507812 -93.269531 8.671875 -95.316406 8.671875 -97.734375 C 8.671875 -100.160156 9.507812 -102.210938 11.1875 -103.890625 C 12.863281 -105.566406 14.914062 -106.40625 17.34375 -106.40625 C 19.664062 -106.40625 21.644531 -105.566406 23.28125 -103.890625 C 24.914062 -102.210938 25.734375 -100.160156 25.734375 -97.734375 C 25.734375 -95.316406 24.914062 -93.269531 23.28125 -91.59375 C 21.644531 -89.914062 19.664062 -89.078125 17.34375 -89.078125 Z M 23.484375 -76.625 L 23.484375 0 L 10.765625 0 L 10.765625 -76.625 Z M 23.484375 -76.625 "/></g></g></g><g fill="#000000" fill-opacity="1"><g transform="translate(901.84208, 235.874985)"><g><path d="M 6.015625 -38.453125 C 6.015625 -46.378906 7.597656 -53.300781 10.765625 -59.21875 C 13.929688 -65.132812 18.332031 -69.722656 23.96875 -72.984375 C 29.613281 -76.253906 36.070312 -77.890625 43.34375 -77.890625 C 52.757812 -77.890625 60.519531 -75.601562 66.625 -71.03125 C 72.726562 -66.46875 76.757812 -60.128906 78.71875 -52.015625 L 65.015625 -52.015625 C 63.710938 -56.671875 61.171875 -60.351562 57.390625 -63.0625 C 53.617188 -65.769531 48.9375 -67.125 43.34375 -67.125 C 36.070312 -67.125 30.195312 -64.628906 25.71875 -59.640625 C 21.25 -54.648438 19.015625 -47.585938 19.015625 -38.453125 C 19.015625 -29.222656 21.25 -22.09375 25.71875 -17.0625 C 30.195312 -12.03125 36.070312 -9.515625 43.34375 -9.515625 C 48.9375 -9.515625 53.597656 -10.816406 57.328125 -13.421875 C 61.054688 -16.035156 63.617188 -19.765625 65.015625 -24.609375 L 78.71875 -24.609375 C 76.664062 -16.773438 72.5625 -10.503906 66.40625 -5.796875 C 60.257812 -1.085938 52.570312 1.265625 43.34375 1.265625 C 36.070312 1.265625 29.613281 -0.363281 23.96875 -3.625 C 18.332031 -6.894531 13.929688 -11.507812 10.765625 -17.46875 C 7.597656 -23.4375 6.015625 -30.429688 6.015625 -38.453125 Z M 6.015625 -38.453125 "/></g></g></g><g fill="#000000" fill-opacity="1"><g transform="translate(981.117725, 235.874985)"><g><path d="M 37.890625 1.265625 C 32.015625 1.265625 26.742188 0.265625 22.078125 -1.734375 C 17.421875 -3.742188 13.738281 -6.539062 11.03125 -10.125 C 8.332031 -13.71875 6.847656 -17.847656 6.578125 -22.515625 L 19.71875 -22.515625 C 20.09375 -18.691406 21.882812 -15.566406 25.09375 -13.140625 C 28.3125 -10.722656 32.53125 -9.515625 37.75 -9.515625 C 42.601562 -9.515625 46.425781 -10.582031 49.21875 -12.71875 C 52.019531 -14.863281 53.421875 -17.566406 53.421875 -20.828125 C 53.421875 -24.191406 51.925781 -26.6875 48.9375 -28.3125 C 45.957031 -29.945312 41.34375 -31.554688 35.09375 -33.140625 C 29.40625 -34.628906 24.765625 -36.140625 21.171875 -37.671875 C 17.585938 -39.210938 14.515625 -41.5 11.953125 -44.53125 C 9.390625 -47.5625 8.109375 -51.546875 8.109375 -56.484375 C 8.109375 -60.398438 9.269531 -63.988281 11.59375 -67.25 C 13.925781 -70.519531 17.238281 -73.109375 21.53125 -75.015625 C 25.820312 -76.929688 30.71875 -77.890625 36.21875 -77.890625 C 44.695312 -77.890625 51.546875 -75.742188 56.765625 -71.453125 C 61.984375 -67.160156 64.78125 -61.285156 65.15625 -53.828125 L 52.4375 -53.828125 C 52.15625 -57.835938 50.546875 -61.054688 47.609375 -63.484375 C 44.671875 -65.910156 40.734375 -67.125 35.796875 -67.125 C 31.222656 -67.125 27.582031 -66.144531 24.875 -64.1875 C 22.175781 -62.226562 20.828125 -59.660156 20.828125 -56.484375 C 20.828125 -53.972656 21.644531 -51.898438 23.28125 -50.265625 C 24.914062 -48.640625 26.96875 -47.335938 29.4375 -46.359375 C 31.90625 -45.378906 35.332031 -44.28125 39.71875 -43.0625 C 45.21875 -41.570312 49.691406 -40.101562 53.140625 -38.65625 C 56.585938 -37.21875 59.546875 -35.050781 62.015625 -32.15625 C 64.484375 -29.269531 65.765625 -25.492188 65.859375 -20.828125 C 65.859375 -16.640625 64.691406 -12.863281 62.359375 -9.5 C 60.035156 -6.144531 56.75 -3.507812 52.5 -1.59375 C 48.257812 0.3125 43.390625 1.265625 37.890625 1.265625 Z M 37.890625 1.265625 "/></g></g></g><g clip-path="url(#33ac425ca7)"><g clip-path="url(#2911fe6386)"><path fill="#000000" d="M 59.191406 76.976562 L 263.402344 76.976562 L 263.402344 187.5 L 59.191406 187.5 Z M 59.191406 76.976562 " fill-opacity="1" fill-rule="nonzero"/></g></g><g clip-path="url(#7cc2f67044)"><g clip-path="url(#c2cb2be617)"><path stroke-linecap="butt" transform="matrix(-0.75, 0, 0, -0.75, 263.406207, 290.402326)" fill="none" stroke-linejoin="miter" d="M 90.807247 8.109352 C 104.723915 3.213518 120.635376 -0.0000240263 136.213503 -0.0000240263 C 151.786421 -0.0000240263 166.776006 2.755185 180.588508 7.651019 C 180.880175 7.807269 181.17705 7.807269 181.468717 7.95831 C 233.338515 27.546855 271.541645 79.276028 272.27602 135.182285 L 272.27602 141.203119 L -0.000056796 141.203119 L -0.000056796 135.187494 C 0.734318 78.968736 38.348907 27.239563 90.807247 8.109352 Z M 90.807247 8.109352 " stroke="#000000" stroke-width="34" stroke-opacity="1" stroke-miterlimit="4"/></g></g><g clip-path="url(#832f1639dc)"><g clip-path="url(#c28c5aa700)"><path stroke-linecap="butt" transform="matrix(-0.75, 0, 0, -0.75, 242.049914, 266.144515)" fill="none" stroke-linejoin="miter" d="M 71.816557 6.416645 C 82.821766 2.541645 95.410309 -0.0000223024 107.728018 -0.0000223024 C 120.045727 -0.0000223024 131.899895 2.177061 142.82177 6.052061 C 143.056145 6.171853 143.285312 6.171853 143.519687 6.291645 C 184.540523 21.786437 214.754067 62.697898 215.3374 106.848943 L 215.3374 108.85936 L -0.00115579 108.85936 L -0.00115579 106.854151 C 0.582178 62.453107 30.33218 21.546854 71.816557 6.416645 Z M 71.816557 6.416645 " stroke="#000000" stroke-width="34" stroke-opacity="1" stroke-miterlimit="4"/></g></g><g clip-path="url(#a5e62abfb2)"><path fill="#ffffff" d="M 54.492188 189 L 270.972656 189 L 270.972656 199.175781 L 54.492188 199.175781 Z M 54.492188 189 " fill-opacity="1" fill-rule="nonzero"/></g></svg>